{"asset":{"version":"2.0","generator":"LittleLucey-HardwareGen"},"scene":0,"scenes":[{"nodes":[0,1,2,3,4]}],"nodes":[{"name":"Bar","mesh":0,"translation":[0,0.6,0],"rotation":[0,0,0.7071067811865475,0.7071067811865476]},{"name":"PostL","mesh":1,"translation":[-2,0.3,0]},{"name":"PostR","mesh":2,"translation":[2,0.3,0]},{"name":"BaseL","mesh":3,"translation":[-2,0,0]},{"name":"BaseR","mesh":4,"translation":[2,0,0]}],"meshes":[{"primitives":[{"attributes":{"POSITION":0,"NORMAL":1},"material":0}]},{"primitives":[{"attributes":{"POSITION":2,"NORMAL":3},"material":0}]},{"primitives":[{"attributes":{"POSITION":4,"NORMAL":5},"material":0}]},{"primitives":[{"attributes":{"POSITION":6,"NORMAL":7},"material":0}]},{"primitives":[{"attributes":{"POSITION":8,"NORMAL":9},"material":0}]}],"accessors":[{"bufferView":0,"componentType":5126,"count":192,"type":"VEC3","min":[-0.15000000596046448,-2.5,-0.15000000596046448],"max":[0.15000000596046448,2.5,0.15000000596046448]},{"bufferView":1,"componentType":5126,"count":192,"type":"VEC3"},{"bufferView":2,"componentType":5126,"count":192,"type":"VEC3","min":[-0.11999999731779099,-0.30000001192092896,-0.11999999731779099],"max":[0.11999999731779099,0.30000001192092896,0.11999999731779099]},{"bufferView":3,"componentType":5126,"count":192,"type":"VEC3"},{"bufferView":4,"componentType":5126,"count":192,"type":"VEC3","min":[-0.11999999731779099,-0.30000001192092896,-0.11999999731779099],"max":[0.11999999731779099,0.30000001192092896,0.11999999731779099]},{"bufferView":5,"componentType":5126,"count":192,"type":"VEC3"},{"bufferView":6,"componentType":5126,"count":192,"type":"VEC3","min":[-0.25,-0.029999999329447746,-0.25],"max":[0.25,0.029999999329447746,0.25]},{"bufferView":7,"componentType":5126,"count":192,"type":"VEC3"},{"bufferView":8,"componentType":5126,"count":192,"type":"VEC3","min":[-0.25,-0.029999999329447746,-0.25],"max":[0.25,0.029999999329447746,0.25]},{"bufferView":9,"componentType":5126,"count":192,"type":"VEC3"}],"bufferViews":[{"buffer":0,"byteOffset":0,"byteLength":2304},{"buffer":0,"byteOffset":2304,"byteLength":2304},{"buffer":0,"byteOffset":4608,"byteLength":2304},{"buffer":0,"byteOffset":6912,"byteLength":2304},{"buffer":0,"byteOffset":9216,"byteLength":2304},{"buffer":0,"byteOffset":11520,"byteLength":2304},{"buffer":0,"byteOffset":13824,"byteLength":2304},{"buffer":0,"byteOffset":16128,"byteLength":2304},{"buffer":0,"byteOffset":18432,"byteLength":2304},{"buffer":0,"byteOffset":20736,"byteLength":2304}],"materials":[{"pbrMetallicRoughness":{"baseColorFactor":[0.69,0.69,0.69,1],"metallicFactor":0.7,"roughnessFactor":0.35}}],"buffers":[{"uri":"data:application/octet-stream;base64,","byteLength":23040}]}