{"asset":{"version":"2.0","generator":"LittleLucey-HardwareGen"},"scene":0,"scenes":[{"nodes":[0,1,2]}],"nodes":[{"name":"OuterRail","mesh":0,"translation":[0,0.25,0]},{"name":"InnerRail","mesh":1,"translation":[2,0.25,0.07]},{"name":"Flange","mesh":2,"translation":[0,0.03,0.21]}],"meshes":[{"primitives":[{"attributes":{"POSITION":0,"NORMAL":1},"material":0}]},{"primitives":[{"attributes":{"POSITION":2,"NORMAL":3},"material":1}]},{"primitives":[{"attributes":{"POSITION":4,"NORMAL":5},"material":0}]}],"accessors":[{"bufferView":0,"componentType":5126,"count":36,"type":"VEC3","min":[-9,-0.25,-0.03999999910593033],"max":[9,0.25,0.03999999910593033]},{"bufferView":1,"componentType":5126,"count":36,"type":"VEC3"},{"bufferView":2,"componentType":5126,"count":36,"type":"VEC3","min":[-7,-0.20000000298023224,-0.029999999329447746],"max":[7,0.20000000298023224,0.029999999329447746]},{"bufferView":3,"componentType":5126,"count":36,"type":"VEC3"},{"bufferView":4,"componentType":5126,"count":36,"type":"VEC3","min":[-9,-0.029999999329447746,-0.25],"max":[9,0.029999999329447746,0.25]},{"bufferView":5,"componentType":5126,"count":36,"type":"VEC3"}],"bufferViews":[{"buffer":0,"byteOffset":0,"byteLength":432},{"buffer":0,"byteOffset":432,"byteLength":432},{"buffer":0,"byteOffset":864,"byteLength":432},{"buffer":0,"byteOffset":1296,"byteLength":432},{"buffer":0,"byteOffset":1728,"byteLength":432},{"buffer":0,"byteOffset":2160,"byteLength":432}],"materials":[{"pbrMetallicRoughness":{"baseColorFactor":[0.2,0.2,0.2,1],"metallicFactor":0.7,"roughnessFactor":0.35}},{"pbrMetallicRoughness":{"baseColorFactor":[0.69,0.69,0.69,1],"metallicFactor":0.7,"roughnessFactor":0.35}}],"buffers":[{"uri":"data:application/octet-stream;base64,","byteLength":2592}]}