{"asset":{"version":"2.0","generator":"LittleLucey-HardwareGen"},"scene":0,"scenes":[{"nodes":[0,1,2]}],"nodes":[{"name":"Cup","mesh":0,"translation":[0,0,-0.22],"rotation":[0.7071067811865475,0,0,0.7071067811865476]},{"name":"Arm","mesh":1,"translation":[0,0,0.7]},{"name":"Plate","mesh":2,"translation":[0,-0.12,0.8]}],"meshes":[{"primitives":[{"attributes":{"POSITION":0,"NORMAL":1},"material":0}]},{"primitives":[{"attributes":{"POSITION":2,"NORMAL":3},"material":0}]},{"primitives":[{"attributes":{"POSITION":4,"NORMAL":5},"material":0}]}],"accessors":[{"bufferView":0,"componentType":5126,"count":192,"type":"VEC3","min":[-0.6899999976158142,-0.22499999403953552,-0.6899999976158142],"max":[0.6899999976158142,0.22499999403953552,0.6899999976158142]},{"bufferView":1,"componentType":5126,"count":192,"type":"VEC3"},{"bufferView":2,"componentType":5126,"count":36,"type":"VEC3","min":[-0.25,-0.07500000298023224,-0.8999999761581421],"max":[0.25,0.07500000298023224,0.8999999761581421]},{"bufferView":3,"componentType":5126,"count":36,"type":"VEC3"},{"bufferView":4,"componentType":5126,"count":36,"type":"VEC3","min":[-0.25,-0.03999999910593033,-1],"max":[0.25,0.03999999910593033,1]},{"bufferView":5,"componentType":5126,"count":36,"type":"VEC3"}],"bufferViews":[{"buffer":0,"byteOffset":0,"byteLength":2304},{"buffer":0,"byteOffset":2304,"byteLength":2304},{"buffer":0,"byteOffset":4608,"byteLength":432},{"buffer":0,"byteOffset":5040,"byteLength":432},{"buffer":0,"byteOffset":5472,"byteLength":432},{"buffer":0,"byteOffset":5904,"byteLength":432}],"materials":[{"pbrMetallicRoughness":{"baseColorFactor":[0.69,0.69,0.69,1],"metallicFactor":0.7,"roughnessFactor":0.35}}],"buffers":[{"uri":"data:application/octet-stream;base64,","byteLength":6336}]}