{"asset":{"version":"2.0","generator":"LittleLucey-HardwareGen"},"scene":0,"scenes":[{"nodes":[0,1,2]}],"nodes":[{"name":"LeftLeaf","mesh":0,"translation":[-0.75,0,0]},{"name":"RightLeaf","mesh":1,"translation":[0.75,0,0]},{"name":"Pin","mesh":2,"translation":[0,0,0]}],"meshes":[{"primitives":[{"attributes":{"POSITION":0,"NORMAL":1},"material":0}]},{"primitives":[{"attributes":{"POSITION":2,"NORMAL":3},"material":0}]},{"primitives":[{"attributes":{"POSITION":4,"NORMAL":5},"material":0}]}],"accessors":[{"bufferView":0,"componentType":5126,"count":36,"type":"VEC3","min":[-0.75,-1.5,-0.03999999910593033],"max":[0.75,1.5,0.03999999910593033]},{"bufferView":1,"componentType":5126,"count":36,"type":"VEC3"},{"bufferView":2,"componentType":5126,"count":36,"type":"VEC3","min":[-0.75,-1.5,-0.03999999910593033],"max":[0.75,1.5,0.03999999910593033]},{"bufferView":3,"componentType":5126,"count":36,"type":"VEC3"},{"bufferView":4,"componentType":5126,"count":192,"type":"VEC3","min":[-0.10000000149011612,-1.5,-0.10000000149011612],"max":[0.10000000149011612,1.5,0.10000000149011612]},{"bufferView":5,"componentType":5126,"count":192,"type":"VEC3"}],"bufferViews":[{"buffer":0,"byteOffset":0,"byteLength":432},{"buffer":0,"byteOffset":432,"byteLength":432},{"buffer":0,"byteOffset":864,"byteLength":432},{"buffer":0,"byteOffset":1296,"byteLength":432},{"buffer":0,"byteOffset":1728,"byteLength":2304},{"buffer":0,"byteOffset":4032,"byteLength":2304}],"materials":[{"pbrMetallicRoughness":{"baseColorFactor":[0.79,0.66,0.3,1],"metallicFactor":0.7,"roughnessFactor":0.35}}],"buffers":[{"uri":"data:application/octet-stream;base64,","byteLength":6336}]}