{"asset":{"version":"2.0","generator":"LittleLucey-HardwareGen"},"scene":0,"scenes":[{"nodes":[0,1,2]}],"nodes":[{"name":"Knob","mesh":0,"translation":[0,0.7,0]},{"name":"Post","mesh":1,"translation":[0,0.25,0]},{"name":"Base","mesh":2,"translation":[0,0,0]}],"meshes":[{"primitives":[{"attributes":{"POSITION":0,"NORMAL":1},"material":0}]},{"primitives":[{"attributes":{"POSITION":2,"NORMAL":3},"material":0}]},{"primitives":[{"attributes":{"POSITION":4,"NORMAL":5},"material":0}]}],"accessors":[{"bufferView":0,"componentType":5126,"count":576,"type":"VEC3","min":[-0.5,-0.5,-0.5],"max":[0.5,0.5,0.5]},{"bufferView":1,"componentType":5126,"count":576,"type":"VEC3"},{"bufferView":2,"componentType":5126,"count":192,"type":"VEC3","min":[-0.11999999731779099,-0.25,-0.11999999731779099],"max":[0.11999999731779099,0.25,0.11999999731779099]},{"bufferView":3,"componentType":5126,"count":192,"type":"VEC3"},{"bufferView":4,"componentType":5126,"count":192,"type":"VEC3","min":[-0.3499999940395355,-0.03999999910593033,-0.3499999940395355],"max":[0.3499999940395355,0.03999999910593033,0.3499999940395355]},{"bufferView":5,"componentType":5126,"count":192,"type":"VEC3"}],"bufferViews":[{"buffer":0,"byteOffset":0,"byteLength":6912},{"buffer":0,"byteOffset":6912,"byteLength":6912},{"buffer":0,"byteOffset":13824,"byteLength":2304},{"buffer":0,"byteOffset":16128,"byteLength":2304},{"buffer":0,"byteOffset":18432,"byteLength":2304},{"buffer":0,"byteOffset":20736,"byteLength":2304}],"materials":[{"pbrMetallicRoughness":{"baseColorFactor":[0.79,0.66,0.3,1],"metallicFactor":0.7,"roughnessFactor":0.35}}],"buffers":[{"uri":"data:application/octet-stream;base64,","byteLength":23040}]}